<svg width="12" height="14" viewBox="0 0 12 14" xmlns="http://www.w3.org/2000/svg">
<path d="M7.77778 6.99791L11.6352 3.14047C12.1216 2.65409 12.1216 1.84906 11.6352 1.36269C11.1488 0.876316 10.3438 0.876316 9.85744 1.36269L6 5.22013L2.14256 1.36269C1.65618 0.876316 0.851153 0.876316 0.36478 1.36269C-0.121593 1.84906 -0.121593 2.65409 0.36478 3.14047L4.22222 6.99791L0.36478 10.8554C-0.121593 11.3417 -0.121593 12.1468 0.36478 12.6331C0.616352 12.8847 0.93501 13.0021 1.25367 13.0021C1.57233 13.0021 1.89098 12.8847 2.14256 12.6331L6 8.77569L9.85744 12.6331C10.109 12.8847 10.4277 13.0021 10.7463 13.0021C11.065 13.0021 11.3836 12.8847 11.6352 12.6331C12.1216 12.1468 12.1216 11.3417 11.6352 10.8554L7.77778 6.99791Z" fill="#A3A3A3"/>
</svg>
