<svg width="25" height="24" viewBox="0 0 25 24" fill="none" xmlns="http://www.w3.org/2000/svg">
<path opacity="0.4" d="M17.0691 2.60062C19.2565 2.60062 21.0296 4.37378 21.0296 6.56107V16.9572C21.0296 19.1445 19.2565 20.9177 17.0691 20.9177H12.5789C10.3916 20.9177 8.61849 19.1445 8.61849 16.9572V6.56107C8.61849 4.37378 10.3916 2.60062 12.5789 2.60062H17.0691Z" fill="#FAFAFA"/>
<path fill-rule="evenodd" clip-rule="evenodd" d="M14.2 12.4797L12.7792 13.9005C12.5008 14.1789 12.5008 14.6301 12.7792 14.9181C13.0576 15.1965 13.5184 15.1965 13.7968 14.9181L16.456 12.2685C16.504 12.2205 16.5424 12.1725 16.5712 12.1149C16.5808 12.1149 16.5808 12.1149 16.5808 12.1053C16.5904 12.0765 16.6096 12.0573 16.6192 12.0285C16.648 11.9517 16.6672 11.8653 16.6672 11.7789V11.7405C16.6672 11.6541 16.648 11.5677 16.6192 11.4909C16.5904 11.4333 16.5616 11.3853 16.5328 11.3373C16.504 11.3085 16.4848 11.2797 16.456 11.2509L13.7968 8.6013C13.5184 8.3229 13.0576 8.3229 12.7792 8.6013C12.5008 8.8893 12.5008 9.3405 12.7792 9.62851L14.2 11.0397H4.69039C4.29274 11.0397 3.97039 11.3621 3.97039 11.7597C3.97039 12.1573 4.29274 12.4797 4.69039 12.4797H14.2Z" fill="#FAFAFA"/>
</svg>
